<mxfile host="Electron" agent="Mozilla/5.0 (Windows NT 10.0; Win64; x64) AppleWebKit/537.36 (KHTML, like Gecko) draw.io/24.7.17 Chrome/128.0.6613.36 Electron/32.0.1 Safari/537.36" version="24.7.17">
  <diagram name="第 1 页" id="_WQKmvGBL0fW5tUEFXdZ">
    <mxGraphModel dx="1221" dy="823" grid="1" gridSize="10" guides="1" tooltips="1" connect="1" arrows="1" fold="1" page="1" pageScale="1" pageWidth="827" pageHeight="1169" math="0" shadow="0">
      <root>
        <mxCell id="0" />
        <mxCell id="1" parent="0" />
        <mxCell id="2wpRxoJjAoE5_WsI9Cme-2" value="" style="edgeStyle=orthogonalEdgeStyle;rounded=0;orthogonalLoop=1;jettySize=auto;html=1;" edge="1" parent="1" source="dTcixxXejlwQUUDECHfq-1" target="2wpRxoJjAoE5_WsI9Cme-1">
          <mxGeometry relative="1" as="geometry" />
        </mxCell>
        <mxCell id="dTcixxXejlwQUUDECHfq-1" value="&lt;font style=&quot;font-size: 14px;&quot;&gt;程序开始&lt;/font&gt;" style="ellipse;whiteSpace=wrap;html=1;" parent="1" vertex="1">
          <mxGeometry x="360" y="40" width="120" height="40" as="geometry" />
        </mxCell>
        <mxCell id="dTcixxXejlwQUUDECHfq-2" value="&lt;font style=&quot;font-size: 14px;&quot;&gt;程序结束&lt;/font&gt;" style="ellipse;whiteSpace=wrap;html=1;" parent="1" vertex="1">
          <mxGeometry x="550" y="200" width="120" height="40" as="geometry" />
        </mxCell>
        <mxCell id="dTcixxXejlwQUUDECHfq-12" style="edgeStyle=orthogonalEdgeStyle;rounded=0;orthogonalLoop=1;jettySize=auto;html=1;exitX=0.5;exitY=1;exitDx=0;exitDy=0;entryX=0.5;entryY=0;entryDx=0;entryDy=0;" parent="1" source="dTcixxXejlwQUUDECHfq-3" target="dTcixxXejlwQUUDECHfq-5" edge="1">
          <mxGeometry relative="1" as="geometry" />
        </mxCell>
        <mxCell id="dTcixxXejlwQUUDECHfq-22" value="&lt;font style=&quot;font-size: 14px;&quot;&gt;否&lt;/font&gt;" style="edgeLabel;html=1;align=center;verticalAlign=middle;resizable=0;points=[];" parent="dTcixxXejlwQUUDECHfq-12" vertex="1" connectable="0">
          <mxGeometry x="0.0667" relative="1" as="geometry">
            <mxPoint x="10" y="-1" as="offset" />
          </mxGeometry>
        </mxCell>
        <mxCell id="2wpRxoJjAoE5_WsI9Cme-6" value="" style="edgeStyle=orthogonalEdgeStyle;rounded=0;orthogonalLoop=1;jettySize=auto;html=1;" edge="1" parent="1" source="dTcixxXejlwQUUDECHfq-3" target="dTcixxXejlwQUUDECHfq-2">
          <mxGeometry relative="1" as="geometry" />
        </mxCell>
        <mxCell id="2wpRxoJjAoE5_WsI9Cme-7" value="&lt;font style=&quot;font-size: 14px;&quot;&gt;是&lt;/font&gt;" style="edgeLabel;html=1;align=center;verticalAlign=middle;resizable=0;points=[];" vertex="1" connectable="0" parent="2wpRxoJjAoE5_WsI9Cme-6">
          <mxGeometry x="-0.1238" y="-1" relative="1" as="geometry">
            <mxPoint y="-11" as="offset" />
          </mxGeometry>
        </mxCell>
        <mxCell id="dTcixxXejlwQUUDECHfq-3" value="&lt;font style=&quot;font-size: 14px;&quot;&gt;k == 0&lt;/font&gt;" style="rhombus;whiteSpace=wrap;html=1;" parent="1" vertex="1">
          <mxGeometry x="360" y="200" width="120" height="40" as="geometry" />
        </mxCell>
        <mxCell id="2wpRxoJjAoE5_WsI9Cme-11" style="edgeStyle=orthogonalEdgeStyle;rounded=0;orthogonalLoop=1;jettySize=auto;html=1;entryX=0.5;entryY=0;entryDx=0;entryDy=0;" edge="1" parent="1" source="dTcixxXejlwQUUDECHfq-5" target="dTcixxXejlwQUUDECHfq-14">
          <mxGeometry relative="1" as="geometry" />
        </mxCell>
        <mxCell id="dTcixxXejlwQUUDECHfq-5" value="&lt;span style=&quot;font-size: 14px;&quot;&gt;由 10^(k-1) 遍历到 10^k - 1&lt;/span&gt;&lt;div&gt;&lt;span style=&quot;font-size: 14px;&quot;&gt;将符合条件的数存入数组中&lt;/span&gt;&lt;/div&gt;" style="rounded=0;whiteSpace=wrap;html=1;" parent="1" vertex="1">
          <mxGeometry x="315" y="280" width="210" height="40" as="geometry" />
        </mxCell>
        <mxCell id="2wpRxoJjAoE5_WsI9Cme-12" style="edgeStyle=orthogonalEdgeStyle;rounded=0;orthogonalLoop=1;jettySize=auto;html=1;exitX=0.5;exitY=1;exitDx=0;exitDy=0;" edge="1" parent="1" source="dTcixxXejlwQUUDECHfq-14">
          <mxGeometry relative="1" as="geometry">
            <mxPoint x="420" y="100" as="targetPoint" />
            <Array as="points">
              <mxPoint x="420" y="430" />
              <mxPoint x="220" y="430" />
              <mxPoint x="220" y="100" />
            </Array>
          </mxGeometry>
        </mxCell>
        <mxCell id="dTcixxXejlwQUUDECHfq-14" value="&lt;font style=&quot;font-size: 14px;&quot;&gt;输出 &lt;br&gt;k位的xxx数共有count个arr[0],arr[1],...&lt;/font&gt;" style="shape=parallelogram;perimeter=parallelogramPerimeter;whiteSpace=wrap;html=1;fixedSize=1;" parent="1" vertex="1">
          <mxGeometry x="260" y="370" width="320" height="40" as="geometry" />
        </mxCell>
        <mxCell id="2wpRxoJjAoE5_WsI9Cme-3" value="" style="edgeStyle=orthogonalEdgeStyle;rounded=0;orthogonalLoop=1;jettySize=auto;html=1;" edge="1" parent="1" source="2wpRxoJjAoE5_WsI9Cme-1" target="dTcixxXejlwQUUDECHfq-3">
          <mxGeometry relative="1" as="geometry" />
        </mxCell>
        <mxCell id="2wpRxoJjAoE5_WsI9Cme-1" value="&lt;font style=&quot;font-size: 14px;&quot;&gt;输入数字k&lt;/font&gt;" style="shape=parallelogram;perimeter=parallelogramPerimeter;whiteSpace=wrap;html=1;fixedSize=1;" vertex="1" parent="1">
          <mxGeometry x="360" y="120" width="120" height="40" as="geometry" />
        </mxCell>
      </root>
    </mxGraphModel>
  </diagram>
</mxfile>
